<svg width="397" height="397" xmlns="http://www.w3.org/2000/svg" xmlns:xlink="http://www.w3.org/1999/xlink" overflow="hidden"><defs><clipPath id="clip0"><rect x="0" y="0" width="397" height="397"/></clipPath><clipPath id="clip1"><rect x="-97" y="9" width="485" height="378"/></clipPath><clipPath id="clip2"><rect x="-97" y="9" width="485" height="378"/></clipPath><clipPath id="clip3"><rect x="-97" y="9" width="596" height="571"/></clipPath></defs><g clip-path="url(#clip0)"><rect x="0" y="0" width="397" height="397" fill="#FFFFFF"/><g clip-path="url(#clip1)"><g clip-path="url(#clip2)"><g clip-path="url(#clip3)"><path d="M1316.04 5016.1 1302.7 5016.1 1302.7 4943.91 1266.51 4943.91 1266.51 5016.1 1253.17 5016.1 1253.17 4865.88 1266.51 4865.88 1266.51 4931.92 1302.7 4931.92 1302.7 4865.88 1316.04 4865.88Z" fill="#2C5AA0" transform="matrix(1 0 0 1.00226 -1350.07 -4447.74)"/><path d="M1202.72 5005.44C1202.72 5008.58 1201.73 5011.14 1199.75 5013.12 1197.83 5015.1 1195.3 5016.1 1192.17 5016.1L1154.35 5016.1C1151.21 5016.1 1148.62 5015.1 1146.57 5013.12 1144.59 5011.14 1143.6 5008.58 1143.6 5005.44L1143.6 4967.33 1156.94 4967.33 1156.94 5004.29 1189.38 5004.29 1189.38 4968.49 1147.92 4918.38C1145.04 4914.93 1143.6 4911.12 1143.6 4906.96L1143.6 4876.53C1143.6 4873.4 1144.59 4870.83 1146.57 4868.85 1148.62 4866.87 1151.21 4865.88 1154.35 4865.88L1192.17 4865.88C1195.3 4865.88 1197.83 4866.87 1199.75 4868.85 1201.73 4870.83 1202.72 4873.4 1202.72 4876.53L1202.72 4911.47 1189.38 4911.47 1189.38 4877.68 1156.94 4877.68 1156.94 4909.36 1198.6 4959.46C1201.35 4962.79 1202.72 4966.53 1202.72 4970.69Z" fill="#2C5AA0" transform="matrix(1 0 0 1.00226 -918.319 -4447.87)"/><path d="M-2244.82 385.642C-2244.82 489.385-2328.92 573.486-2432.67 573.486-2536.41 573.486-2620.51 489.385-2620.51 385.642-2620.51 281.898-2536.41 197.797-2432.67 197.797-2328.92 197.797-2244.82 281.898-2244.82 385.642Z" fill="#93CCD6" transform="matrix(1 0 0 1.00226 2632.04 -188.245)"/><path d="M-1630.92 443.102-1630.92 468.137C-1631.26 478.34-1635.33 483.306-1638.77 486.883-1641.97 490.023-1649.01 494.764-1657.52 494.736L-1682.56 494.736" stroke="#FFFFFF" stroke-width="14.9725" stroke-linecap="round" stroke-linejoin="round" fill="none" transform="matrix(1 0 0 1.00226 1941.9 -187.619)"/><path d="M-1802.42 274.858-1827.46 274.858C-1837.66 275.196-1842.63 279.271-1846.2 282.711-1849.34 285.909-1854.08 292.943-1854.06 301.456L-1854.06 326.491" stroke="#FFFFFF" stroke-width="14.9711" stroke-linecap="round" stroke-linejoin="round" fill="none" transform="matrix(1 0 0 1.00226 1941.9 -187.619)"/><path d="M-1854.5 443.102-1854.5 468.137C-1854.16 478.34-1850.09 483.306-1846.65 486.883-1843.45 490.023-1836.41 494.764-1827.9 494.736L-1802.86 494.736" stroke="#FFFFFF" stroke-width="14.9725" stroke-linecap="round" stroke-linejoin="round" fill="none" transform="matrix(1 0 0 1.00226 1941.9 -187.619)"/><path d="M-1682.56 274.858-1657.52 274.858C-1647.32 275.196-1642.35 279.271-1638.77 282.711-1635.63 285.909-1630.89 292.943-1630.92 301.456L-1630.92 326.491" stroke="#FFFFFF" stroke-width="14.9725" stroke-linecap="round" stroke-linejoin="round" fill="none" transform="matrix(1 0 0 1.00226 1941.9 -187.619)"/><path d="M-2358.4 414.682-2358.4 383.424" stroke="#2C5AA0" stroke-width="14.71" stroke-linecap="round" stroke-opacity="0.45" fill="none" transform="matrix(1 0 0 1.00226 2632.04 -188.245)"/><path d="M-2395.74 414.682-2395.74 335.8" stroke="#2C5AA0" stroke-width="14.71" stroke-linecap="round" stroke-opacity="0.45" fill="none" transform="matrix(1 0 0 1.00226 2632.04 -188.245)"/><path d="M-2470.42 414.682-2470.42 414.682" stroke="#2C5AA0" stroke-width="14.71" stroke-linecap="round" stroke-opacity="0.45" fill="none" transform="matrix(1 0 0 1.00226 2632.04 -188.245)"/><path d="M-2507.76 414.682-2507.76 414.682" stroke="#2C5AA0" stroke-width="14.71" stroke-linecap="round" stroke-opacity="0.45" fill="none" transform="matrix(1 0 0 1.00226 2632.04 -188.245)"/><path d="M-2433.08 414.682-2433.08 256.896" stroke="#2C5AA0" stroke-width="14.71" stroke-linecap="round" fill="none" transform="matrix(1 0 0 1.00226 2632.04 -188.245)"/><path d="M-2321.06 414.682-2321.06 414.682" stroke="#2C5AA0" stroke-width="14.71" stroke-linecap="round" stroke-opacity="0.45" fill="none" transform="matrix(1 0 0 1.00226 2632.04 -188.245)"/><path d="M-2545.11 414.682-2545.11 414.682" stroke="#2C5AA0" stroke-width="14.71" stroke-linecap="round" stroke-opacity="0.45" fill="none" transform="matrix(1 0 0 1.00226 2632.04 -188.245)"/><path d="M-2283.72 414.682-2283.72 414.682" stroke="#2C5AA0" stroke-width="14.71" stroke-linecap="round" stroke-opacity="0.45" fill="none" transform="matrix(1 0 0 1.00226 2632.04 -188.245)"/><path d="M-2582.45 414.682-2582.45 414.682" stroke="#2C5AA0" stroke-width="14.71" stroke-linecap="round" stroke-opacity="0.45" fill="none" transform="matrix(1 0 0 1.00226 2632.04 -188.245)"/></g></g></g></g></svg>